<svg xmlns="http://www.w3.org/2000/svg" width="512" height="512" viewBox="0 0 512 512" role="img" aria-labelledby="title desc"><title id="title">Rynaro, the grafted ascent</title><desc id="desc">Two unequal orchid stems rise from separate roots, join in a living graft, and carry an asymmetric flower on a leaning pedicel.</desc>
<path fill="none" stroke="#756F91" stroke-width="11" stroke-linecap="round" stroke-linejoin="round" d="M294 454C304 417 303 385 294 351C286 320 274 286 270 254"/><path fill="none" stroke="#756F91" stroke-width="8" stroke-linecap="round" stroke-linejoin="round" d="M180 427C187 392 198 351 224 319C245 293 252 270 270 254"/><path fill="none" stroke="#756F91" stroke-width="9" stroke-linecap="round" stroke-linejoin="round" d="M270 254C260 226 246 193 222 151"/><path fill="#E6A44A" d="M260 265C264 255 263 247 260 239C268 243 275 243 282 238C279 248 277 257 280 266C273 262 267 262 260 265Z"/>
<path fill="#E6A44A" d="M284 383L296 374L307 382L304 397L292 404L282 396Z"/><path fill="#E6A44A" d="M277 326L288 317L299 324L297 338L287 346L276 339Z"/><path fill="#E6A44A" d="M188 381L198 371L209 377L208 391L198 399L187 394Z"/><path fill="#E6A44A" d="M224 304L234 294L245 300L243 313L233 321L223 316Z"/>
<path fill="none" stroke="#756F91" stroke-width="6" stroke-linecap="round" stroke-linejoin="round" d="M225 319C208 303 197 284 201 266C204 253 213 247 223 250"/><path fill="#E6A44A" d="M220 252C211 244 210 233 216 223C227 229 234 238 232 248C229 253 225 255 220 252Z"/><path fill="none" stroke="#756F91" stroke-width="3.5" stroke-linecap="round" d="M218 229C224 236 227 243 226 250"/>
<path fill="none" stroke="#E6A44A" stroke-width="6" stroke-linecap="round" stroke-linejoin="round" d="M222 151C210 126 199 91 201 56C219 74 228 110 222 151Z"/><path fill="none" stroke="#E6A44A" stroke-width="7" stroke-linecap="round" stroke-linejoin="round" d="M219 145C191 123 145 126 112 151C134 179 176 187 216 161"/><path fill="none" stroke="#E6A44A" stroke-width="6" stroke-linecap="round" stroke-linejoin="round" d="M226 143C247 123 273 117 292 129C279 149 253 158 229 154"/><path fill="none" stroke="#E6A44A" stroke-width="5" stroke-linecap="round" stroke-linejoin="round" d="M217 153C191 159 164 178 154 203C182 202 207 184 224 163"/><path fill="none" stroke="#E6A44A" stroke-width="5" stroke-linecap="round" stroke-linejoin="round" d="M229 154C246 159 263 170 271 185C251 187 235 176 224 164"/>
<path fill="#E6A44A" fill-rule="evenodd" d="M222 145C210 157 196 169 197 184C198 194 207 199 216 200C209 208 214 221 229 228C247 217 249 203 240 196C250 190 255 181 251 173C246 161 234 152 222 145ZM215 181C214 175 218 170 223 167C229 171 232 177 229 182C225 187 218 186 215 181Z"/>
<g fill="none" stroke="#756F91" stroke-width="3" stroke-linecap="round"><path d="M217 141C211 112 207 84 205 66"/><path d="M208 151C177 148 147 154 123 164"/><path d="M235 146C252 136 270 132 283 134"/><path d="M210 165C188 176 171 190 161 198"/><path d="M235 163C248 172 258 179 265 183"/></g>
<path fill="none" stroke="#E6A44A" stroke-width="6" stroke-linecap="round" stroke-linejoin="round" d="M182 420C164 411 146 416 134 431C119 450 91 450 79 432C69 416 78 398 94 394C108 391 120 400 118 413C116 422 108 427 100 424"/><path fill="none" stroke="#E6A44A" stroke-width="5" stroke-linecap="round" stroke-linejoin="round" d="M183 423C199 425 210 416 214 402C218 412 218 424 211 433"/>
<path fill="none" stroke="#E6A44A" stroke-width="6" stroke-linecap="round" stroke-linejoin="round" d="M294 449C312 440 330 443 343 458C358 475 384 474 396 457C407 441 399 422 383 418C368 414 356 424 359 437C361 446 369 450 377 447"/><path fill="none" stroke="#E6A44A" stroke-width="5" stroke-linecap="round" stroke-linejoin="round" d="M293 452C279 456 269 449 266 438C260 446 260 456 266 465"/>
<path fill="none" stroke="#756F91" stroke-width="3.5" stroke-linecap="round" d="M162 427C137 439 111 440 91 430"/><path fill="none" stroke="#756F91" stroke-width="3.5" stroke-linecap="round" d="M316 453C340 464 365 465 385 455"/></svg>
